<svg xmlns="http://www.w3.org/2000/svg" viewBox="0 0 368.91 131.81"><defs><style>.cls-1{fill:#fff;}</style></defs><g id="Calque_2" data-name="Calque 2"><g id="Calque_1-2" data-name="Calque 1"><path class="cls-1" d="M359.54,52.88s10.95,3.55,9.17,19.69c-1.33,11.55-9,11.25-14.65,10.81s-16.88-4-16.14-15C338.51,59.39,353.46,51.1,359.54,52.88ZM355.83,36.3c-.14,1-.29,5.92-.74,9s1.63,2.37,1.78,2.07,1.63-2.66,2.07-2.52c.89.15.89.6,2.67,2.08,1.63,1.48,2.37-.89,1.77-1.78s-5.33-9.77-5.33-9.77C357.46,33.93,355.83,35.11,355.83,36.3ZM321.34,1.65c0,1,.29,6.51.29,9.62s1.78,2.22,1.93,1.93.88-3.26,1.33-3.41c1.48-.15,1.48.45,3.4,1.78,1.78,1.18,2.22-1.19,1.63-1.93-.74-.74-6.36-9.18-6.36-9.18C322.82-.72,321.34.61,321.34,1.65ZM303.57,2s-4.15,11.25-4.89,12-.15,3.26,1.63,1.92,2.67-2.81,3.55-2.81c.45,0,1,1,1.19,1.18.15.3,2.07,1.19,1.92-1.92S306.23,4,306.38,3,304.46.61,303.57,2ZM285.65,36.59S281.8,47,281.21,47.7s-.15,3,1.48,1.77C284.47,48.29,285.21,47,286,47c.44,0,.89.88,1,1.18s1.93,1,1.78-1.78c0-2.81-.59-7.7-.59-8.73C288.17,36.44,286.39,35.26,285.65,36.59ZM307.12,85.3c-2.07,4.45-17.77,4-18.51,20.73-.44,9.77,8.3,22.8,16.73,22.8,6.67,0,9.63-1.48,12.29-.59,2.82,1,2.22,3.41,6.07,3.56,1.63.14,3.85-.6,6.07-3.11,3.56-3.71,9.63-3.26,12.74-3.26,5.18,0,10.95-8.59,10.36-14.36-.44-4.45-3.55-5.78-10.81-22.21-7-15.7-16.43-17.62-21.47-17.62C312.45,71.24,310.53,78.35,307.12,85.3Zm-21-33.61c-7.26-.59-9.92,8.44-10.37,12.44-.44,4.15,3.26,22.65,10.22,22.8s20.28-15,20.28-19.25S293.5,52.29,286.1,51.69Zm37.46-20.43c0,15.7,1.92,23.1,8,22.06,2.52-.44,13.18-2.37,13.18-13.47,0-10.66-12.88-24.58-16.73-24.13S323.56,15.42,323.56,31.26Zm-29.62,7.26c0,7.7,8.3,17,15.25,16.88,11.55-.15,5.19-38.2-4-36.87C299.72,19.27,293.94,30.52,293.94,38.52Z"/><path class="cls-1" d="M78.32.85h38.74a2.76,2.76,0,0,1,2,.77,2.41,2.41,0,0,1,.77,1.79,2.51,2.51,0,0,1-.51,1.53L80.62,56.28l-.17-.68H117a2.61,2.61,0,0,1,1.78.68,2.22,2.22,0,0,1,.77,1.71,2.48,2.48,0,0,1-.77,1.79,2.61,2.61,0,0,1-1.78.68H76.19a2.54,2.54,0,0,1-2-.85,2.86,2.86,0,0,1-.68-1.79,2.52,2.52,0,0,1,.51-1.54L112.63,5.36l.51.35H78.32A2.71,2.71,0,0,1,76.44,5a2.61,2.61,0,0,1-.68-1.78,2.34,2.34,0,0,1,.68-1.71A2.75,2.75,0,0,1,78.32.85Zm106.61,29.8A34.58,34.58,0,0,1,182.8,43a29.12,29.12,0,0,1-5.88,9.71,27.21,27.21,0,0,1-9.11,6.38,28.74,28.74,0,0,1-11.41,2.22,29.31,29.31,0,0,1-11.49-2.22,27.4,27.4,0,0,1-9-6.38,30.16,30.16,0,0,1-6-9.71,36,36,0,0,1-2-12.35,35.23,35.23,0,0,1,2-12.26,29,29,0,0,1,6-9.7,25.78,25.78,0,0,1,9-6.39A28.48,28.48,0,0,1,156.4,0a27.93,27.93,0,0,1,11.41,2.3,25.64,25.64,0,0,1,9.11,6.39,28,28,0,0,1,5.88,9.7A33.89,33.89,0,0,1,184.93,30.65Zm-5.45,0a28.36,28.36,0,0,0-3-13.28,22,22,0,0,0-8.09-9,22.33,22.33,0,0,0-12-3.23,21.79,21.79,0,0,0-20.18,12.26,29,29,0,0,0-2.9,13.28A29.5,29.5,0,0,0,136.22,44,21.95,21.95,0,0,0,156.4,56.2a22.24,22.24,0,0,0,12-3.24A22,22,0,0,0,176.5,44,28.88,28.88,0,0,0,179.48,30.65Zm70.67,0A34.58,34.58,0,0,1,248,43a29.09,29.09,0,0,1-5.87,9.71A27.31,27.31,0,0,1,233,59.09a28.77,28.77,0,0,1-11.41,2.22,29.36,29.36,0,0,1-11.5-2.22,27.6,27.6,0,0,1-9-6.38,30.33,30.33,0,0,1-6-9.71,36,36,0,0,1-2-12.35,35.23,35.23,0,0,1,2-12.26,29.14,29.14,0,0,1,6-9.7,26,26,0,0,1,9-6.39A28.53,28.53,0,0,1,221.63,0,28,28,0,0,1,233,2.3a25.72,25.72,0,0,1,9.11,6.39,28,28,0,0,1,5.87,9.7A33.89,33.89,0,0,1,250.15,30.65Zm-5.45,0a28.24,28.24,0,0,0-3-13.28,22,22,0,0,0-8.09-9,22.27,22.27,0,0,0-12-3.23,22.57,22.57,0,0,0-12,3.23,22.5,22.5,0,0,0-8.17,9,28.84,28.84,0,0,0-2.9,13.28A29.37,29.37,0,0,0,201.45,44,21.95,21.95,0,0,0,221.63,56.2,21.72,21.72,0,0,0,241.72,44,28.75,28.75,0,0,0,244.7,30.65Z"/><path class="cls-1" d="M6.77,131.56,0,86.85H7.09l4.6,34.68h.12l4.6-34.68h6.45l-6.77,44.71Zm17.63,0,7.28-44.71h9.51l7.28,44.71h-7l-1.28-8.88v.13h-8l-1.28,8.75ZM33,116.74h6.32l-3.13-22.1h-.13Zm18.84,14.82V86.85h7v38.32H70.44v6.39ZM72.8,112.4V106h14v6.39Zm19.93,19.41a17.86,17.86,0,0,1-3.26-.25v-6.39a9.51,9.51,0,0,0,2.3.26,4.26,4.26,0,0,0,3.13-1,4.62,4.62,0,0,0,1-3.26V86.85h7V121q0,5.49-2.56,8.17T92.73,131.81Zm13.41-.25,7.28-44.71h9.52l7.28,44.71h-7l-1.28-8.88v.13h-8l-1.28,8.75Zm8.62-14.82h6.32L118,94.64h-.12Zm18.84,14.82V86.85h7v38.32h11.56v6.39Zm22,0V86.85h10.6c3.62,0,6.26.86,7.92,2.56s2.49,4.23,2.49,7.73v1.78a11.92,11.92,0,0,1-1.15,5.62,6.39,6.39,0,0,1-3.38,3.13v.13q5.23,1.78,5.23,9.32V121c0,3.45-.91,6.08-2.74,7.92s-4.43,2.68-7.92,2.68Zm7-26.51h2.74a4.11,4.11,0,0,0,3.13-1.08,5,5,0,0,0,1.09-3.64V97.84a5.47,5.47,0,0,0-.9-3.51A3.14,3.14,0,0,0,166,93.24H162.6Zm0,20.12h4a3.57,3.57,0,0,0,2.74-1,5.21,5.21,0,0,0,.9-3.45v-3.89c0-2-.36-3.45-1.09-4.22a4.32,4.32,0,0,0-3.45-1.21H162.6Zm18.77,6.39V86.85h19.16v6.39H188.4v11.81H198v6.39H188.4v13.73h12.13v6.39Zm23.18,0V86.85H215c3.62,0,6.26.86,7.92,2.56s2.49,4.23,2.49,7.73v2.74q0,7-4.6,8.81v.13a5.38,5.38,0,0,1,3.58,3.13,15.4,15.4,0,0,1,1.09,6.32v7.86c0,1.28,0,2.32.12,3.13a8,8,0,0,0,.64,2.3h-7.15a9.73,9.73,0,0,1-.51-2.05,29.16,29.16,0,0,1-.13-3.44v-8.18c0-2-.34-3.47-1-4.28A4.09,4.09,0,0,0,214,112.4h-2.42v19.16Zm7-25.55h2.55a4.11,4.11,0,0,0,3.13-1.08,5,5,0,0,0,1.09-3.64V97.84a5.47,5.47,0,0,0-.9-3.51,3.13,3.13,0,0,0-2.68-1.09h-3.19Zm24.2,25.55V93.24h-7.34V86.85h21.71v6.39h-7.34v38.32Z"/></g></g></svg>